<svg xmlns:xlink="http://www.w3.org/1999/xlink" xmlns="http://www.w3.org/2000/svg" xmlns:v="https://vecta.io/nano" viewBox="0 0 221.272 169.932" fill="#95c11e" width="221.272"  height="169.932" ><path d="M51.084 0C21.672 0 0 19.35 0 49.536c0 20.511 9.675 35.6 25.155 42.957l-19.35 65.4h54.18l27.09-57.663c13.545-29.025 15.093-38.313 15.093-50.7C102.168 19.35 80.496 0 51.084 0Z"/><path d="M65.696 15.788a57.611 57.611 0 0 1 20.084 3.448 46.872 46.872 0 0 1 16.067 9.888 44.578 44.578 0 0 1 10.613 15.538 52.932 52.932 0 0 1 3.807 20.23 64.017 64.017 0 0 1-2.419 18.7c-2.07 7.463-5.808 16.823-12.121 30.349l-26.3 55.982H19.96l18.684-63.151a43.223 43.223 0 0 1-8.884-6.133 41.776 41.776 0 0 1-7.911-9.6 45.679 45.679 0 0 1-4.997-12.015 56.174 56.174 0 0 1-1.732-14.132 52.932 52.932 0 0 1 3.807-20.23 44.578 44.578 0 0 1 10.618-15.538 46.872 46.872 0 0 1 16.067-9.888 57.611 57.611 0 0 1 20.084-3.448Zm32.412 96.466c12.767-27.358 14.164-35.8 14.164-47.362 0-26.978-18.717-45.1-46.576-45.1S19.12 37.914 19.12 64.892c0 17.935 8.3 32.165 22.778 39.041l1.545.734-18.126 61.265H72.89l25.218-53.678Z"/><path d="M156.084 0C126.672 0 105 19.35 105 49.536c0 20.511 9.675 35.6 25.155 42.957l-19.35 65.4h54.18l27.09-57.663c13.545-29.025 15.093-38.313 15.093-50.7 0-30.18-21.672-49.53-51.084-49.53Z"/><path d="M170.696 15.788a57.611 57.611 0 0 1 20.084 3.448 46.872 46.872 0 0 1 16.067 9.888 44.578 44.578 0 0 1 10.613 15.538 52.932 52.932 0 0 1 3.807 20.23 64.017 64.017 0 0 1-2.419 18.7c-2.07 7.463-5.808 16.823-12.121 30.349l-26.3 55.982H124.96l18.684-63.151a43.223 43.223 0 0 1-8.884-6.133 41.776 41.776 0 0 1-7.911-9.6 45.679 45.679 0 0 1-4.997-12.015 56.174 56.174 0 0 1-1.732-14.132 52.932 52.932 0 0 1 3.807-20.23 44.578 44.578 0 0 1 10.618-15.538 46.872 46.872 0 0 1 16.067-9.888 57.611 57.611 0 0 1 20.084-3.448Zm32.412 96.466c12.767-27.358 14.164-35.8 14.164-47.362 0-26.978-18.717-45.1-46.576-45.1s-46.576 18.122-46.576 45.1c0 17.935 8.3 32.165 22.778 39.041l1.545.734-18.126 61.265h47.573l25.218-53.678Z"/></svg>