<svg xmlns="http://www.w3.org/2000/svg" xmlns:xlink="http://www.w3.org/1999/xlink" xmlns:v="https://vecta.io/nano" viewBox="0 0 221.272 169.932" width="221.272"  height="169.932" ><g fill="#95c11e"><use xlink:href="#B"/><path d="M155.576 154.144a57.611 57.611 0 0 1-20.084-3.448 46.873 46.873 0 0 1-16.067-9.888 44.578 44.578 0 0 1-10.618-15.538A52.932 52.932 0 0 1 105 105.036a64.017 64.017 0 0 1 2.419-18.7c2.07-7.463 5.808-16.823 12.121-30.349L145.84.005h55.468l-18.682 63.146a43.223 43.223 0 0 1 8.89 6.143 41.776 41.776 0 0 1 7.911 9.6 45.679 45.679 0 0 1 4.993 12.014 56.174 56.174 0 0 1 1.732 14.131 52.932 52.932 0 0 1-3.807 20.23 44.578 44.578 0 0 1-10.618 15.538 46.872 46.872 0 0 1-16.067 9.889 57.611 57.611 0 0 1-20.084 3.448Zm-32.412-96.466C110.397 85.036 109 93.477 109 105.036c0 26.978 18.717 45.1 46.576 45.1s46.576-18.126 46.576-45.1c0-17.935-8.3-32.165-22.778-39.041l-1.545-.734 18.126-61.265h-47.573l-25.218 53.682Z"/><use xlink:href="#B" x="-105"/><path d="M50.576 154.144a57.611 57.611 0 0 1-20.084-3.448 46.873 46.873 0 0 1-16.067-9.888A44.578 44.578 0 0 1 3.807 125.27 52.932 52.932 0 0 1 0 105.036a64.017 64.017 0 0 1 2.419-18.7c2.07-7.463 5.808-16.823 12.121-30.349L40.84.005h55.468L77.626 63.151a43.223 43.223 0 0 1 8.89 6.143 41.776 41.776 0 0 1 7.911 9.6 45.679 45.679 0 0 1 4.993 12.014 56.174 56.174 0 0 1 1.732 14.131 52.932 52.932 0 0 1-3.807 20.23 44.578 44.578 0 0 1-10.618 15.538 46.872 46.872 0 0 1-16.067 9.889 57.611 57.611 0 0 1-20.084 3.448ZM18.164 57.678C5.397 85.036 4 93.477 4 105.036c0 26.978 18.717 45.1 46.576 45.1s46.576-18.126 46.576-45.1c0-17.935-8.3-32.165-22.778-39.041l-1.545-.734L90.955 3.996H43.382L18.164 57.678Z"/></g><defs><path id="B" d="M170.188 169.932c29.412 0 51.084-19.35 51.084-49.536 0-20.511-9.675-35.6-25.155-42.957l19.35-65.4h-54.18l-27.09 57.663c-13.545 29.022-15.093 38.31-15.093 50.694 0 30.186 21.672 49.536 51.084 49.536Z"/></defs></svg>